<svg width="45" height="45" viewBox="0 0 45 45" fill="none" xmlns="http://www.w3.org/2000/svg">
<g opacity="0.949">
<path fill-rule="evenodd" clip-rule="evenodd" d="M29.466 25.5732L29.2601 26.163L21.568 24.0995L21.7228 23.5097C21.7228 23.5097 21.8467 23.1227 21.8467 23.1196C22.6532 20.5599 24.3481 18.3727 26.6256 16.953C28.9031 15.5332 31.6131 14.9743 34.2664 15.3772C36.9198 15.7801 39.3418 17.1181 41.0952 19.1499C42.8486 21.1817 43.818 23.7733 43.8284 26.4571C43.8316 28.7252 43.1407 30.9399 41.8485 32.8039L41.8284 32.8349C40.7902 34.3261 39.4063 35.5437 37.795 36.3835C36.1837 37.2232 34.3929 37.6602 32.5759 37.657H29.0666L35.3144 28.1274C35.6348 27.6301 35.7997 27.0486 35.788 26.4571C35.786 25.7126 35.5255 24.9919 35.0513 24.418C34.577 23.8441 33.9182 23.4525 33.1875 23.3102C32.4567 23.1679 31.6991 23.2836 31.0442 23.6376C30.3892 23.9916 29.8773 24.5619 29.596 25.2512L29.466 25.5732ZM28.4907 29.8055C27.6577 31.1316 26.6212 32.3184 25.4195 33.3225C23.0955 35.2597 20.2365 36.4429 17.2232 36.7144C14.2099 36.9859 11.1854 36.3328 8.5526 34.8423C5.91979 33.3517 3.80362 31.0943 2.48599 28.3708C1.16836 25.6473 0.711815 22.5869 1.17716 19.5975C1.6425 16.608 3.00765 13.8312 5.09076 11.6371C7.17387 9.44295 9.87605 7.93558 12.8374 7.31576C15.7987 6.69595 18.8786 6.99311 21.6668 8.16766C24.455 9.34222 26.8191 11.3384 28.4443 13.8903L20.4565 15.9941C19.3531 15.1428 18.0328 14.6184 16.646 14.4808C15.2592 14.3431 13.8616 14.5977 12.6123 15.2155C11.3631 15.8333 10.3125 16.7895 9.58009 17.9752C8.84771 19.1609 8.46301 20.5284 8.46981 21.922C8.47661 23.3156 8.87464 24.6793 9.61856 25.8578C10.3625 27.0363 11.4224 27.9822 12.6776 28.5878C13.9328 29.1933 15.3328 29.4343 16.7182 29.2831C18.1036 29.1319 19.4188 28.5947 20.5138 27.7327L28.4845 29.807L28.4907 29.8055Z" fill="#28A0A6"/>
</g>
</svg>
